<mxfile host="app.diagrams.net" agent="Mozilla/5.0 (Windows NT 10.0; Win64; x64) AppleWebKit/537.36 (KHTML, like Gecko) Chrome/131.0.0.0 Safari/537.36" version="25.0.3">
  <diagram name="หน้า-1" id="SK9pIDZRB1UBtL-IvRGa">
    <mxGraphModel dx="1034" dy="446" grid="1" gridSize="10" guides="1" tooltips="1" connect="1" arrows="1" fold="1" page="1" pageScale="1" pageWidth="827" pageHeight="1169" math="0" shadow="0">
      <root>
        <mxCell id="0" />
        <mxCell id="1" parent="0" />
        <mxCell id="lAL1QxysRWL7JJzR2x54-3" value="" style="edgeStyle=orthogonalEdgeStyle;rounded=0;orthogonalLoop=1;jettySize=auto;html=1;" edge="1" parent="1" source="lAL1QxysRWL7JJzR2x54-1" target="lAL1QxysRWL7JJzR2x54-2">
          <mxGeometry relative="1" as="geometry" />
        </mxCell>
        <mxCell id="lAL1QxysRWL7JJzR2x54-1" value="start" style="ellipse;whiteSpace=wrap;html=1;" vertex="1" parent="1">
          <mxGeometry x="350" y="90" width="120" height="80" as="geometry" />
        </mxCell>
        <mxCell id="lAL1QxysRWL7JJzR2x54-5" value="" style="edgeStyle=orthogonalEdgeStyle;rounded=0;orthogonalLoop=1;jettySize=auto;html=1;" edge="1" parent="1" source="lAL1QxysRWL7JJzR2x54-2" target="lAL1QxysRWL7JJzR2x54-4">
          <mxGeometry relative="1" as="geometry" />
        </mxCell>
        <mxCell id="lAL1QxysRWL7JJzR2x54-2" value="สร้าง struct student" style="whiteSpace=wrap;html=1;" vertex="1" parent="1">
          <mxGeometry x="350" y="260" width="120" height="60" as="geometry" />
        </mxCell>
        <mxCell id="lAL1QxysRWL7JJzR2x54-7" value="" style="edgeStyle=orthogonalEdgeStyle;rounded=0;orthogonalLoop=1;jettySize=auto;html=1;" edge="1" parent="1" source="lAL1QxysRWL7JJzR2x54-4" target="lAL1QxysRWL7JJzR2x54-6">
          <mxGeometry relative="1" as="geometry" />
        </mxCell>
        <mxCell id="lAL1QxysRWL7JJzR2x54-4" value="สร้างฟังก์ชั่นสลับตำแหน่ง" style="whiteSpace=wrap;html=1;" vertex="1" parent="1">
          <mxGeometry x="350" y="400" width="120" height="60" as="geometry" />
        </mxCell>
        <mxCell id="lAL1QxysRWL7JJzR2x54-9" value="" style="edgeStyle=orthogonalEdgeStyle;rounded=0;orthogonalLoop=1;jettySize=auto;html=1;" edge="1" parent="1" source="lAL1QxysRWL7JJzR2x54-6" target="lAL1QxysRWL7JJzR2x54-8">
          <mxGeometry relative="1" as="geometry" />
        </mxCell>
        <mxCell id="lAL1QxysRWL7JJzR2x54-6" value="สร้างฟังก์ชั่นเรียงลำดับความสูง" style="whiteSpace=wrap;html=1;" vertex="1" parent="1">
          <mxGeometry x="350" y="540" width="120" height="60" as="geometry" />
        </mxCell>
        <mxCell id="lAL1QxysRWL7JJzR2x54-11" value="" style="edgeStyle=orthogonalEdgeStyle;rounded=0;orthogonalLoop=1;jettySize=auto;html=1;" edge="1" parent="1" source="lAL1QxysRWL7JJzR2x54-8" target="lAL1QxysRWL7JJzR2x54-10">
          <mxGeometry relative="1" as="geometry" />
        </mxCell>
        <mxCell id="lAL1QxysRWL7JJzR2x54-8" value="รับค่านักเรียน&lt;div&gt;ชื่อ และ ความสูง&lt;/div&gt;" style="shape=parallelogram;perimeter=parallelogramPerimeter;whiteSpace=wrap;html=1;fixedSize=1;" vertex="1" parent="1">
          <mxGeometry x="350" y="680" width="120" height="60" as="geometry" />
        </mxCell>
        <mxCell id="lAL1QxysRWL7JJzR2x54-12" style="edgeStyle=orthogonalEdgeStyle;rounded=0;orthogonalLoop=1;jettySize=auto;html=1;exitX=1;exitY=0.5;exitDx=0;exitDy=0;entryX=0.7;entryY=0.35;entryDx=0;entryDy=0;entryPerimeter=0;" edge="1" parent="1" source="lAL1QxysRWL7JJzR2x54-10" target="lAL1QxysRWL7JJzR2x54-13">
          <mxGeometry relative="1" as="geometry">
            <mxPoint x="530" y="670" as="targetPoint" />
            <Array as="points">
              <mxPoint x="540" y="870" />
              <mxPoint x="540" y="640" />
            </Array>
          </mxGeometry>
        </mxCell>
        <mxCell id="lAL1QxysRWL7JJzR2x54-16" value="" style="edgeStyle=orthogonalEdgeStyle;rounded=0;orthogonalLoop=1;jettySize=auto;html=1;" edge="1" parent="1" source="lAL1QxysRWL7JJzR2x54-10" target="lAL1QxysRWL7JJzR2x54-15">
          <mxGeometry relative="1" as="geometry" />
        </mxCell>
        <mxCell id="lAL1QxysRWL7JJzR2x54-10" value="ผู้ใช้กรอก -1 ใช่หรือไม่" style="rhombus;whiteSpace=wrap;html=1;" vertex="1" parent="1">
          <mxGeometry x="345" y="810" width="130" height="120" as="geometry" />
        </mxCell>
        <mxCell id="lAL1QxysRWL7JJzR2x54-13" value="" style="shape=waypoint;sketch=0;fillStyle=solid;size=6;pointerEvents=1;points=[];fillColor=none;resizable=0;rotatable=0;perimeter=centerPerimeter;snapToPoint=1;" vertex="1" parent="1">
          <mxGeometry x="400" y="630" width="20" height="20" as="geometry" />
        </mxCell>
        <mxCell id="lAL1QxysRWL7JJzR2x54-14" value="T" style="text;html=1;align=center;verticalAlign=middle;resizable=0;points=[];autosize=1;strokeColor=none;fillColor=none;" vertex="1" parent="1">
          <mxGeometry x="475" y="818" width="30" height="30" as="geometry" />
        </mxCell>
        <mxCell id="lAL1QxysRWL7JJzR2x54-18" value="" style="edgeStyle=orthogonalEdgeStyle;rounded=0;orthogonalLoop=1;jettySize=auto;html=1;" edge="1" parent="1" source="lAL1QxysRWL7JJzR2x54-15" target="lAL1QxysRWL7JJzR2x54-17">
          <mxGeometry relative="1" as="geometry" />
        </mxCell>
        <mxCell id="lAL1QxysRWL7JJzR2x54-15" value="รวบรวมข้อมูล" style="whiteSpace=wrap;html=1;" vertex="1" parent="1">
          <mxGeometry x="350" y="1040" width="120" height="60" as="geometry" />
        </mxCell>
        <mxCell id="lAL1QxysRWL7JJzR2x54-20" value="" style="edgeStyle=orthogonalEdgeStyle;rounded=0;orthogonalLoop=1;jettySize=auto;html=1;" edge="1" parent="1" source="lAL1QxysRWL7JJzR2x54-17" target="lAL1QxysRWL7JJzR2x54-19">
          <mxGeometry relative="1" as="geometry" />
        </mxCell>
        <mxCell id="lAL1QxysRWL7JJzR2x54-17" value="เรียงข้อมูลความสูง" style="whiteSpace=wrap;html=1;" vertex="1" parent="1">
          <mxGeometry x="350" y="1180" width="120" height="60" as="geometry" />
        </mxCell>
        <mxCell id="lAL1QxysRWL7JJzR2x54-22" style="edgeStyle=orthogonalEdgeStyle;rounded=0;orthogonalLoop=1;jettySize=auto;html=1;exitX=0.5;exitY=1;exitDx=0;exitDy=0;entryX=0.5;entryY=0;entryDx=0;entryDy=0;" edge="1" parent="1" source="lAL1QxysRWL7JJzR2x54-19" target="lAL1QxysRWL7JJzR2x54-21">
          <mxGeometry relative="1" as="geometry" />
        </mxCell>
        <mxCell id="lAL1QxysRWL7JJzR2x54-19" value="แสดงผลลัพธ์" style="shape=parallelogram;perimeter=parallelogramPerimeter;whiteSpace=wrap;html=1;fixedSize=1;" vertex="1" parent="1">
          <mxGeometry x="350" y="1320" width="120" height="60" as="geometry" />
        </mxCell>
        <mxCell id="lAL1QxysRWL7JJzR2x54-21" value="end" style="ellipse;whiteSpace=wrap;html=1;" vertex="1" parent="1">
          <mxGeometry x="350" y="1510" width="120" height="80" as="geometry" />
        </mxCell>
      </root>
    </mxGraphModel>
  </diagram>
</mxfile>
